<mxfile host="app.diagrams.net" agent="Mozilla/5.0 (X11; Linux x86_64; rv:132.0) Gecko/20100101 Firefox/132.0" version="26.2.3">
  <diagram name="high-level-user-flow" id="WoDrJrBZwuePS88aWyiH">
    <mxGraphModel dx="1384" dy="743" grid="1" gridSize="10" guides="1" tooltips="1" connect="1" arrows="0" fold="1" page="1" pageScale="1" pageWidth="850" pageHeight="1100" math="0" shadow="0">
      <root>
        <mxCell id="0" />
        <mxCell id="1" parent="0" />
        <mxCell id="POjuD4HtTyrlYN5XBSAU-7" value="" style="rounded=0;whiteSpace=wrap;html=1;fillColor=#e1d5e7;strokeColor=#9673a6;" vertex="1" parent="1">
          <mxGeometry x="250" y="240" width="285" height="570" as="geometry" />
        </mxCell>
        <mxCell id="POjuD4HtTyrlYN5XBSAU-1" value="End User" style="shape=umlActor;verticalLabelPosition=bottom;verticalAlign=top;html=1;outlineConnect=0;" vertex="1" parent="1">
          <mxGeometry x="360" y="110" width="30" height="60" as="geometry" />
        </mxCell>
        <mxCell id="POjuD4HtTyrlYN5XBSAU-2" value="&lt;div&gt;Speech Processing&lt;/div&gt;&lt;div&gt;or SP&lt;/div&gt;&lt;div&gt;(STT+TTS)&lt;br&gt;&lt;/div&gt;&lt;div&gt;Layer&lt;/div&gt;" style="whiteSpace=wrap;html=1;aspect=fixed;fillColor=#60a917;fontColor=#ffffff;strokeColor=#2D7600;" vertex="1" parent="1">
          <mxGeometry x="345" y="510" width="80" height="80" as="geometry" />
        </mxCell>
        <mxCell id="POjuD4HtTyrlYN5XBSAU-3" value="&lt;div&gt;Core AI Layer&lt;/div&gt;" style="whiteSpace=wrap;html=1;aspect=fixed;fillColor=#fa6800;strokeColor=#C73500;fontColor=#000000;" vertex="1" parent="1">
          <mxGeometry x="345" y="690" width="80" height="80" as="geometry" />
        </mxCell>
        <mxCell id="POjuD4HtTyrlYN5XBSAU-4" value="" style="shape=flexArrow;endArrow=classic;html=1;rounded=0;fillColor=#647687;strokeColor=#314354;" edge="1" parent="1">
          <mxGeometry width="50" height="50" relative="1" as="geometry">
            <mxPoint x="400" y="430" as="sourcePoint" />
            <mxPoint x="400" y="490" as="targetPoint" />
          </mxGeometry>
        </mxCell>
        <mxCell id="POjuD4HtTyrlYN5XBSAU-8" value="&lt;font style=&quot;font-size: 20px;&quot;&gt;&lt;b&gt;MINA&lt;/b&gt;&lt;/font&gt;" style="text;html=1;align=center;verticalAlign=middle;whiteSpace=wrap;rounded=0;" vertex="1" parent="1">
          <mxGeometry x="320" y="250" width="130" height="40" as="geometry" />
        </mxCell>
        <mxCell id="POjuD4HtTyrlYN5XBSAU-11" value="" style="shape=flexArrow;endArrow=classic;html=1;rounded=0;fillColor=#647687;strokeColor=#314354;" edge="1" parent="1">
          <mxGeometry width="50" height="50" relative="1" as="geometry">
            <mxPoint x="360.00000000000006" y="490" as="sourcePoint" />
            <mxPoint x="360.00000000000006" y="430" as="targetPoint" />
          </mxGeometry>
        </mxCell>
        <mxCell id="POjuD4HtTyrlYN5XBSAU-14" value="" style="shape=flexArrow;endArrow=classic;html=1;rounded=0;fillColor=#647687;strokeColor=#314354;" edge="1" parent="1">
          <mxGeometry width="50" height="50" relative="1" as="geometry">
            <mxPoint x="400" y="620" as="sourcePoint" />
            <mxPoint x="400" y="680" as="targetPoint" />
          </mxGeometry>
        </mxCell>
        <mxCell id="POjuD4HtTyrlYN5XBSAU-15" value="" style="shape=flexArrow;endArrow=classic;html=1;rounded=0;fillColor=#647687;strokeColor=#314354;" edge="1" parent="1">
          <mxGeometry width="50" height="50" relative="1" as="geometry">
            <mxPoint x="370" y="670" as="sourcePoint" />
            <mxPoint x="370" y="610" as="targetPoint" />
          </mxGeometry>
        </mxCell>
        <mxCell id="POjuD4HtTyrlYN5XBSAU-17" value="&lt;div&gt;Wake Up&lt;/div&gt;&lt;div&gt;Layer&lt;br&gt;&lt;/div&gt;" style="whiteSpace=wrap;html=1;aspect=fixed;fillColor=#0050ef;strokeColor=#001DBC;fontColor=#ffffff;" vertex="1" parent="1">
          <mxGeometry x="345" y="320" width="80" height="80" as="geometry" />
        </mxCell>
      </root>
    </mxGraphModel>
  </diagram>
</mxfile>
